# xmcd
#
# Track frame offsets:
#	150
#	20556
#	37758
#	54404
#	69967
#	86884
#	103316
#	120321
#	138005
#	153964
#	164997
#	180411
#	199864
#	214220
#	227408
#
# Disc length: 3262 seconds
#
# Revision: 3
# Processed by: cddbd v1.5.2PL0 Copyright (c) Steve Scherf et al.
# Submitted via: EasyCDDAExtractor 10.0.1.1
#
DISCID=c40cbc0f
DTITLE=The Pussycat Dolls - PCD
DYEAR=2005
DGENRE=R&B
TTITLE0=Don't Cha [Featuring Busta Rhymes]
TTITLE1=Beep [Featuring Will.I.Am]
TTITLE2=Wait A Minute [Featuring Timbaland]
TTITLE3=Stickwitu
TTITLE4=Buttons
TTITLE5=I Don't Need A Man
TTITLE6=Hot Stuff (I Want You Back)
TTITLE7=How Many Times, How Many Lies
TTITLE8=Bite The Dust
TTITLE9=Right Now
TTITLE10=Tainted Love/Where Did Our Love Go
TTITLE11=Feelin' Good
TTITLE12=Sway [Bonus]
TTITLE13=Flirt
TTITLE14=We Went As Far As We Felt Like Going [Bonus]
EXTD=
EXTT0=
EXTT1=
EXTT2=
EXTT3=
EXTT4=
EXTT5=
EXTT6=
EXTT7=
EXTT8=
EXTT9=
EXTT10=
EXTT11=
EXTT12=
EXTT13=
EXTT14=
PLAYORDER=
